<svg xmlns="http://www.w3.org/2000/svg">

  <symbol viewBox="0 0 24 24" fill="none" stroke="#000" id="arrow-down">
    <path d="M7.49994 10.25L11.9999 14.75L16.4999 10.25" />
  </symbol>

  <symbol viewBox="0 0 52 52" id="play">
    <circle cx="26" cy="26" r="26" fill="#DF6951" />
    <path d="M34 26L22 32.9282V19.0718L34 26Z" fill="white" />
  </symbol>

  <symbol viewBox="0 0 18 18" id="location">
    <path
      d="M17.0683 1.76032L10.1933 16.7603C10.1357 16.886 10.0382 16.989 9.91588 17.0533C9.79356 17.1176 9.65339 17.1396 9.51726 17.1158C9.38114 17.092 9.25675 17.0237 9.16355 16.9217C9.07034 16.8196 9.01358 16.6896 9.00214 16.5519L8.42089 9.57894L1.44795 8.99769C1.31024 8.98625 1.18019 8.92949 1.07816 8.83629C0.976134 8.74308 0.907871 8.61869 0.884051 8.48257C0.86023 8.34645 0.882196 8.20627 0.946512 8.08395C1.01083 7.96164 1.11387 7.86409 1.23952 7.80657L16.2395 0.931565C16.3555 0.878422 16.4849 0.862033 16.6105 0.884598C16.736 0.907163 16.8516 0.967602 16.9418 1.0578C17.032 1.148 17.0925 1.26363 17.115 1.38918C17.1376 1.51472 17.1212 1.64417 17.0681 1.76013L17.0683 1.76032Z" />
  </symbol>

  <symbol viewBox="0 0 14 14" fill="none" id="leaf">
    <path
      d="M13.6544 0.150827C13.2856 0.0428744 4.26249 -0.855475 1.09366 3.42567C-0.309786 5.32223 -0.330868 7.9221 1.02333 11.1525C0.67981 11.8655 0.379084 12.6166 0.134002 13.4091C0.0594904 13.6499 0.194268 13.9052 0.43481 13.9795C0.479654 13.9934 0.525072 14 0.569915 14C0.764384 14 0.944934 13.8744 1.0052 13.6787C3.42041 5.87028 11.2693 2.09267 13.6763 1.13835C13.9105 1.0454 14.2236 0.317405 13.6544 0.150827Z"
      fill="#84829A" />
    <path
      d="M2.47188 12.1297C3.77828 12.6777 5.08449 12.9586 6.29918 12.9586C7.39098 12.9586 8.40918 12.7341 9.28658 12.2789C11.0524 11.3629 12.1315 9.61072 12.407 7.21123C12.6878 4.76581 13.0373 3.23407 13.3288 2.29703C10.7335 3.49419 5.16873 6.59731 2.47188 12.1297Z"
      fill="#84829A" />
  </symbol>

  <symbol viewBox="0 0 14 14" fill="none" id="map">
    <path
      d="M13.5009 3.56123e-08C13.4232 -2.92608e-05 13.3466 0.0180173 13.2771 0.0527336L9.48821 1.94771L5.20378 0.0432416C5.19678 0.0402533 5.18878 0.039726 5.18128 0.0367378C5.16201 0.0295308 5.14229 0.0235251 5.12228 0.0187497C5.10239 0.0133885 5.08217 0.00919911 5.06178 0.00624017C5.02118 0.00290038 4.98037 0.00290038 4.93979 0.00624017C4.9194 0.00919911 4.89919 0.0133885 4.8793 0.0187497C4.85929 0.0235251 4.83957 0.0295308 4.82029 0.0367378C4.81279 0.039726 4.80479 0.040224 4.79779 0.0432416L0.297862 2.04322C0.11722 2.12343 0.000825201 2.30255 0.000854498 2.50019V13.5C0.000942387 13.6692 0.0865172 13.8268 0.228341 13.919C0.370195 14.0114 0.549108 14.0257 0.703822 13.957L5.00076 12.047L9.29769 13.957C9.30519 13.96 9.31319 13.957 9.32069 13.9615C9.44174 14.0157 9.5807 14.0126 9.69917 13.953C9.70717 13.9496 9.71616 13.953 9.72416 13.9475L13.7241 11.9476C13.8936 11.8629 14.0007 11.6896 14.0006 11.5V0.500237C14.0008 0.224088 13.777 0.000117221 13.5009 3.56123e-08ZM4.50079 11.1751L1.00083 12.7305V2.8252L4.50079 1.26971V11.1751ZM9.00072 12.7305L5.50076 11.1751V1.26971L9.00072 2.82517V12.7305ZM13.0006 11.1911L10.0007 12.691V2.80918L13.0006 1.3092V11.1911Z"
      fill="#84829A" />
  </symbol>

  <symbol viewBox="0 0 14 14" fill="none" id="send">
    <path
      d="M12.3433 1.24251L6.02583 7.58335C5.95341 7.54139 5.87725 7.50624 5.79833 7.47835L1.6275 6.06668C1.50136 6.03507 1.38941 5.96222 1.30942 5.8597C1.22942 5.75719 1.18597 5.63088 1.18597 5.50085C1.18597 5.37081 1.22942 5.24451 1.30942 5.14199C1.38941 5.03947 1.50136 4.96662 1.6275 4.93501L11.9758 1.25418C12.0435 1.23121 12.1144 1.21939 12.1858 1.21918C12.2393 1.21832 12.2925 1.2262 12.3433 1.24251Z"
      fill="#84829A" />
    <path
      d="M12.7459 2.02418L9.06503 12.3842C9.02444 12.5049 8.94545 12.6091 8.84012 12.6807C8.73478 12.7523 8.6089 12.7875 8.4817 12.7808C8.35303 12.7867 8.22602 12.7499 8.1205 12.676C8.01498 12.6021 7.93687 12.4954 7.89836 12.3725L6.51003 8.20168C6.48214 8.12276 6.44699 8.0466 6.40503 7.97418L12.7575 1.65668C12.7934 1.77723 12.7893 1.90614 12.7459 2.02418Z"
      fill="#84829A" />
  </symbol>

  <symbol viewBox="0 0 16 16" fill="none" id="building">
    <path
      d="M0.266665 15.4667H1.86667V6.66667C1.86667 6.5194 1.98607 6.4 2.13333 6.4H5.86667V0.266667C5.86667 0.1194 5.98607 0 6.13333 0H13.0667C13.2139 0 13.3333 0.1194 13.3333 0.266667V15.4667H15.7333C15.8806 15.4667 16 15.5861 16 15.7333C16 15.8806 15.8806 16 15.7333 16H0.266665C0.119399 16 0 15.8806 0 15.7333C0 15.5861 0.119399 15.4667 0.266665 15.4667ZM10.4 15.4667H11.4667V13.0667C11.4667 12.9194 11.3473 12.8 11.2 12.8H10.6667C10.5194 12.8 10.4 12.9194 10.4 13.0667V15.4667ZM9.33333 6.66667V15.4667H9.86667V13.0667C9.86667 12.6248 10.2248 12.2667 10.6667 12.2667H11.2C11.6418 12.2667 12 12.6248 12 13.0667V15.4667H12.8V0.533333H6.4V6.4H9.06667C9.21393 6.4 9.33333 6.5194 9.33333 6.66667ZM2.4 15.4667H8.8V6.93333H2.4V15.4667Z"
      fill="#84829A" />
    <path
      d="M7.46665 3.7334H9.06665C9.21391 3.7334 9.33331 3.8528 9.33331 4.00007V5.60007C9.33331 5.74733 9.21391 5.86673 9.06665 5.86673H7.46665C7.31938 5.86673 7.19998 5.74733 7.19998 5.60007V4.00007C7.19998 3.8528 7.31938 3.7334 7.46665 3.7334ZM7.73331 5.3334H8.79998V4.26673H7.73331V5.3334Z"
      fill="#84829A" />
    <path
      d="M7.46665 1.06665H9.06665C9.21391 1.06665 9.33331 1.18605 9.33331 1.33332V2.93332C9.33331 3.08058 9.21391 3.19998 9.06665 3.19998H7.46665C7.31938 3.19998 7.19998 3.08058 7.19998 2.93332V1.33332C7.19998 1.18605 7.31938 1.06665 7.46665 1.06665ZM7.73331 2.66665H8.79998V1.59998H7.73331V2.66665Z"
      fill="#84829A" />
    <path
      d="M10.1333 3.7334H11.7333C11.8806 3.7334 12 3.8528 12 4.00007V5.60007C12 5.74733 11.8806 5.86673 11.7333 5.86673H10.1333C9.98607 5.86673 9.86667 5.74733 9.86667 5.60007V4.00007C9.86667 3.8528 9.98607 3.7334 10.1333 3.7334ZM10.4 5.3334H11.4667V4.26673H10.4V5.3334Z"
      fill="#84829A" />
    <path
      d="M10.1333 1.06665H11.7333C11.8806 1.06665 12 1.18605 12 1.33332V2.93332C12 3.08058 11.8806 3.19998 11.7333 3.19998H10.1333C9.98607 3.19998 9.86667 3.08058 9.86667 2.93332V1.33332C9.86667 1.18605 9.98607 1.06665 10.1333 1.06665ZM10.4 2.66665H11.4667V1.59998H10.4V2.66665Z"
      fill="#84829A" />
    <path
      d="M10.1333 6.3999H11.7333C11.8806 6.3999 12 6.5193 12 6.66657V8.26657C12 8.41384 11.8806 8.53324 11.7333 8.53324H10.1333C9.98607 8.53324 9.86667 8.41384 9.86667 8.26657V6.66657C9.86667 6.5193 9.98607 6.3999 10.1333 6.3999ZM10.4 7.9999H11.4667V6.93324H10.4V7.9999Z"
      fill="#84829A" />
    <path
      d="M10.1333 9.06665H11.7333C11.8806 9.06665 12 9.18605 12 9.33332V10.9333C12 11.0806 11.8806 11.2 11.7333 11.2H10.1333C9.98607 11.2 9.86667 11.0806 9.86667 10.9333V9.33332C9.86667 9.18605 9.98607 9.06665 10.1333 9.06665ZM10.4 10.6667H11.4667V9.59998H10.4V10.6667Z"
      fill="#84829A" />
    <path
      d="M5.06665 12.2666H3.46665C3.31938 12.2666 3.19998 12.1472 3.19998 12V10.4C3.19998 10.2527 3.31938 10.1333 3.46665 10.1333H5.06665C5.21391 10.1333 5.33331 10.2527 5.33331 10.4V12C5.33331 12.1472 5.21391 12.2666 5.06665 12.2666ZM4.79998 10.6666H3.73331V11.7333H4.79998V10.6666Z"
      fill="#84829A" />
    <path
      d="M5.06665 9.59989H3.46665C3.31938 9.59989 3.19998 9.48049 3.19998 9.33322V7.73322C3.19998 7.58595 3.31938 7.46655 3.46665 7.46655H5.06665C5.21391 7.46655 5.33331 7.58595 5.33331 7.73322V9.33322C5.33331 9.48049 5.21391 9.59989 5.06665 9.59989ZM4.79998 7.99989H3.73331V9.06655H4.79998V7.99989Z"
      fill="#84829A" />
    <path
      d="M5.06665 14.9334H3.46665C3.31938 14.9334 3.19998 14.814 3.19998 14.6667V13.0667C3.19998 12.9194 3.31938 12.8 3.46665 12.8H5.06665C5.21391 12.8 5.33331 12.9194 5.33331 13.0667V14.6667C5.33331 14.814 5.21391 14.9334 5.06665 14.9334ZM4.79998 13.3334H3.73331V14.4H4.79998V13.3334Z"
      fill="#84829A" />
    <path
      d="M7.73333 12.2666H6.13333C5.98607 12.2666 5.86667 12.1472 5.86667 12V10.4C5.86667 10.2527 5.98607 10.1333 6.13333 10.1333H7.73333C7.8806 10.1333 8 10.2527 8 10.4V12C8 12.1472 7.8806 12.2666 7.73333 12.2666ZM7.46667 10.6666H6.4V11.7333H7.46667V10.6666Z"
      fill="#84829A" />
    <path
      d="M7.73333 9.59989H6.13333C5.98607 9.59989 5.86667 9.48049 5.86667 9.33322V7.73322C5.86667 7.58595 5.98607 7.46655 6.13333 7.46655H7.73333C7.8806 7.46655 8 7.58595 8 7.73322V9.33322C8 9.48049 7.8806 9.59989 7.73333 9.59989ZM7.46667 7.99989H6.4V9.06655H7.46667V7.99989Z"
      fill="#84829A" />
    <path
      d="M7.73333 14.9334H6.13333C5.98607 14.9334 5.86667 14.814 5.86667 14.6667V13.0667C5.86667 12.9194 5.98607 12.8 6.13333 12.8H7.73333C7.8806 12.8 8 12.9194 8 13.0667V14.6667C8 14.814 7.8806 14.9334 7.73333 14.9334ZM7.46667 13.3334H6.4V14.4H7.46667V13.3334Z"
      fill="#84829A" />
  </symbol>

  <symbol viewBox="0 0 24 24" stroke-width="2" id="heart">
    <path
      d="M11.645 20.91l-.007-.003-.022-.012a15.247 15.247 0 01-.383-.218 25.18 25.18 0 01-4.244-3.17C4.688 15.36 2.25 12.174 2.25 8.25 2.25 5.322 4.714 3 7.688 3A5.5 5.5 0 0112 5.052 5.5 5.5 0 0116.313 3c2.973 0 5.437 2.322 5.437 5.25 0 3.925-2.438 7.111-4.739 9.256a25.175 25.175 0 01-4.244 3.17 15.247 15.247 0 01-.383.219l-.022.012-.007.004-.003.001a.752.752 0 01-.704 0l-.003-.001z" />
  </symbol>

  <symbol viewBox="0 0 24 24" fill="none" id="arrow-prev">
    <path d="M5 16L12 9L19 16" stroke-width="2" stroke-linecap="round" />
  </symbol>

  <symbol viewBox="0 0 24 24" fill="none" id="arrow-next">
    <path d="M5 8.5L12 15.5L19 8.5" stroke-width="2" stroke-linecap="round" />
  </symbol>

  <symbol viewBox="0 0 21 18" fill="none" id="email">
    <path d="M4 6L9.4 10.05C9.75556 10.3167 10.2444 10.3167 10.6 10.05L16 6" stroke="#39425D" stroke-linecap="round" />
    <rect x="0.5" y="0.5" width="20" height="17" rx="4.5" stroke="#39425D" />
  </symbol>

  <symbol viewBox="0 0 24 24" id="fb">
    <path
      d="M14.6071 7.89949C14.287 7.79823 13.919 7.73073 13.5829 7.73073C13.1668 7.73073 12.2706 8.01762 12.2706 8.57451V9.90769H14.399V12.1521H12.2706V18.3455H10.1262V12.1521H9.07001V9.90769H10.1262V8.77702C10.1262 7.07258 10.8624 5.65503 12.6387 5.65503C13.2468 5.65503 14.335 5.68878 14.9272 5.90816L14.6071 7.89949Z" />
  </symbol>

  <symbol viewBox="0 0 24 24" id="inst">
    <path
      d="M17.6562 4H6.34375C5.05156 4 4 5.05156 4 6.34375V17.6562C4 18.9488 5.05156 20 6.34375 20H17.6562C18.9488 20 20 18.9488 20 17.6562V6.34375C20 5.05156 18.9488 4 17.6562 4ZM19.0625 17.6562C19.0625 18.4316 18.4316 19.0625 17.6562 19.0625H6.34375C5.56844 19.0625 4.9375 18.4316 4.9375 17.6562V6.34375C4.9375 5.56844 5.56844 4.9375 6.34375 4.9375H17.6562C18.4316 4.9375 19.0625 5.56844 19.0625 6.34375V17.6562Z" />
    <path
      d="M17.1562 5.90625C16.6394 5.90625 16.2188 6.32687 16.2188 6.84375C16.2188 7.36063 16.6394 7.78125 17.1562 7.78125C17.6731 7.78125 18.0938 7.36063 18.0938 6.84375C18.0938 6.32687 17.6731 5.90625 17.1562 5.90625Z" />
    <path
      d="M12 7.78125C9.67375 7.78125 7.78125 9.67375 7.78125 12C7.78125 14.3263 9.67375 16.2188 12 16.2188C14.3263 16.2188 16.2188 14.3263 16.2188 12C16.2188 9.67375 14.3263 7.78125 12 7.78125ZM12 15.2812C10.1906 15.2812 8.71875 13.8094 8.71875 12C8.71875 10.1906 10.1906 8.71875 12 8.71875C13.8094 8.71875 15.2812 10.1906 15.2812 12C15.2812 13.8094 13.8094 15.2812 12 15.2812Z" />
  </symbol>

  <symbol viewBox="0 0 24 24" id="twitter">
    <path
      d="M20 7.039C19.405 7.3 18.771 7.473 18.11 7.557C18.79 7.151 19.309 6.513 19.553 5.744C18.919 6.122 18.219 6.389 17.473 6.538C16.871 5.897 16.013 5.5 15.077 5.5C13.261 5.5 11.799 6.974 11.799 8.781C11.799 9.041 11.821 9.291 11.875 9.529C9.148 9.396 6.735 8.089 5.114 6.098C4.831 6.589 4.665 7.151 4.665 7.756C4.665 8.892 5.25 9.899 6.122 10.482C5.595 10.472 5.078 10.319 4.64 10.078C4.64 10.088 4.64 10.101 4.64 10.114C4.64 11.708 5.777 13.032 7.268 13.337C7.001 13.41 6.71 13.445 6.408 13.445C6.198 13.445 5.986 13.433 5.787 13.389C6.212 14.688 7.418 15.643 8.852 15.674C7.736 16.547 6.319 17.073 4.785 17.073C4.516 17.073 4.258 17.061 4 17.028C5.453 17.965 7.175 18.5 9.032 18.5C15.068 18.5 18.368 13.5 18.368 9.166C18.368 9.021 18.363 8.881 18.356 8.742C19.007 8.28 19.554 7.703 20 7.039Z" />
  </symbol>

  <symbol viewBox="0 0 24 24" id="apple">
    <path
      d="M13.5021 4.08569C13.5611 6.21307 12.0397 7.68894 10.5201 7.59638C10.2697 5.89866 12.0395 4.08569 13.5021 4.08569Z" />
    <path
      d="M9.78926 19.9144C7.40798 19.9007 5.43823 15.0397 5.43823 12.5641C5.43823 8.52021 8.47183 7.6349 9.64095 7.6349C10.1678 7.6349 10.7304 7.8418 11.2266 8.0249C11.5736 8.15262 11.9325 8.28446 12.1321 8.28446C12.2516 8.28446 12.5331 8.1723 12.7817 8.0739C13.3118 7.86287 13.9714 7.60059 14.7395 7.60059C14.7409 7.60059 14.7427 7.60059 14.7441 7.60059C15.3176 7.60059 17.0567 7.72646 18.1022 9.29659L18.3471 9.66462L17.9947 9.93059C17.4911 10.3105 16.5724 11.0036 16.5724 12.3764C16.5724 14.0024 17.6129 14.6277 18.1128 14.9285C18.3334 15.0612 18.5618 15.1981 18.5618 15.4975C18.5618 15.6929 17.0018 19.8901 14.7363 19.8901C14.182 19.8901 13.7901 19.7235 13.4445 19.5766C13.0948 19.4278 12.7931 19.2996 12.2946 19.2996C12.0419 19.2996 11.7224 19.4191 11.3841 19.5459C10.9218 19.7185 10.3985 19.9144 9.80483 19.9144H9.78926Z" />
  </symbol>
</svg>